<?xml version="1.0" standalone="no"?><!DOCTYPE svg PUBLIC "-//W3C//DTD SVG 1.1//EN"
        "http://www.w3.org/Graphics/SVG/1.1/DTD/svg11.dtd">
<svg t="1625212344070" class="icon" viewBox="0 0 1024 1024" version="1.1" xmlns="http://www.w3.org/2000/svg" p-id="2400"
     width="20" height="20">
    <defs>
        <style type="text/css"></style>
    </defs>
    <path d="M512 670.7c-87.5 0-158.7-71.2-158.7-158.7 0-87.5 71.2-158.7 158.7-158.7 87.5 0 158.7 71.2 158.7 158.7 0 87.5-71.2 158.7-158.7 158.7z m0-260c-55.8 0-101.3 45.4-101.3 101.3S456.2 613.3 512 613.3 613.3 567.9 613.3 512 567.8 410.7 512 410.7z"
          fill="#bfbfbf" p-id="2401"></path>
    <path d="M653.3 931c-9.3 0-18.4-4.6-23.8-12.7-26.4-39.2-70.3-62.6-117.5-62.6s-91.1 23.4-117.5 62.6c-7.3 10.9-21.2 15.5-33.6 11C310.5 911 264.2 884 223.3 849c-9.8-8.4-12.8-22.3-7.3-34 8.8-18.9 13.3-39.1 13.3-60.1 0-73.7-55.2-134.3-128.5-141-12.9-1.2-23.4-10.8-25.6-23.5-4.6-25.8-6.9-52.1-6.9-78.4 0-26.3 2.3-52.6 6.9-78.4 2.3-12.7 12.8-22.4 25.6-23.5 73.3-6.7 128.5-67.3 128.5-141 0-21-4.5-41.2-13.3-60.1-5.5-11.7-2.5-25.6 7.3-34 40.9-35.1 87.2-62.1 137.6-80.3 12.4-4.5 26.2 0 33.6 11 26.4 39.2 70.3 62.6 117.5 62.6s91.1-23.4 117.5-62.6c7.3-10.9 21.2-15.4 33.6-11 51 18.5 97.8 46 139.1 81.6 9.7 8.4 12.6 22.1 7.3 33.7-8.5 18.6-12.9 38.5-12.9 59.1 0 72.8 54.5 133.4 126.9 140.8 12.7 1.3 23 10.9 25.3 23.5 4.6 25.8 7 52.2 7 78.6 0 26.4-2.3 52.8-7 78.6-2.3 12.6-12.6 22.2-25.3 23.5-72.3 7.5-126.9 68-126.9 140.8 0 20.6 4.3 40.5 12.9 59.1 5.3 11.6 2.4 25.3-7.3 33.7-41.2 35.7-88 63.2-139.1 81.6-3.2 1.1-6.5 1.7-9.8 1.7zM512 798.3c58.5 0 113.4 25.6 151 69.4 30.8-13.1 59.6-30 86.1-50.7-6.6-20-9.9-40.8-9.9-62.1 0-49.5 18.3-97 51.6-133.7 27.9-30.8 64.4-51.8 104.5-60.7 2-16.1 3-32.3 3-48.6 0-16.2-1-32.5-3-48.6-40.1-8.8-76.6-29.9-104.5-60.6-33.3-36.7-51.6-84.1-51.6-133.7 0-21.3 3.3-42.2 9.9-62.1-26.5-20.6-55.3-37.6-86.1-50.7-37.6 43.8-92.5 69.4-151 69.4S398.6 200 361 156.2c-30.2 12.8-58.5 29.4-84.6 49.5 6.8 20.3 10.3 41.5 10.3 63.3 0 49.9-18.6 97.7-52.3 134.5-28.3 30.9-65.3 51.8-105.7 60.3a388.626 388.626 0 0 0 0 96.4c40.5 8.5 77.4 29.4 105.7 60.3 33.7 36.8 52.3 84.5 52.3 134.5 0 21.8-3.5 43-10.3 63.3 26.1 20.1 54.4 36.7 84.6 49.5 37.6-43.9 92.5-69.5 151-69.5z"
          fill="#bfbfbf" p-id="2402"></path>
</svg>
